<svg width="101" height="101" viewBox="0 0 101 101" fill="none" xmlns="http://www.w3.org/2000/svg">
<path d="M12.6233 55.8959C16.5701 53.2587 21.2102 51.8512 25.957 51.8512C32.3222 51.8512 38.4267 54.3797 42.9275 58.8806C47.4284 63.3814 49.9569 69.4859 49.9569 75.8511C49.9569 80.5978 48.5494 85.238 45.9122 89.1848C43.2751 93.1315 39.5268 96.2077 35.1414 98.0242C30.756 99.8407 25.9304 100.316 21.2748 99.3899C16.6193 98.4639 12.3429 96.1781 8.98646 92.8216C5.63001 89.4652 3.34424 85.1888 2.41819 80.5333C1.49215 75.8777 1.96743 71.0521 3.78393 66.6667C5.60043 62.2813 8.67656 58.533 12.6233 55.8959ZM78.2348 4.93263L99.1168 40.6407C99.1169 40.6409 99.117 40.641 99.117 40.6412C101.497 44.7174 98.5306 49.8512 93.7127 49.8512H51.9511C47.1332 49.8512 44.1663 44.7174 46.5467 40.6412C46.5468 40.641 46.5469 40.6409 46.547 40.6407L67.4289 4.93263C67.4293 4.93206 67.4296 4.9315 67.4299 4.93094C67.9852 3.99293 68.7751 3.21565 69.7219 2.67561C70.6693 2.13526 71.7412 1.85107 72.8319 1.85107C73.9226 1.85107 74.9944 2.13526 75.9419 2.67561C76.8887 3.21565 77.6786 3.99293 78.2338 4.93094C78.2342 4.9315 78.2345 4.93206 78.2348 4.93263ZM63.4569 58.1012H94.7068C96.0992 58.1012 97.4346 58.6543 98.4191 59.6388C99.4037 60.6234 99.9568 61.9588 99.9568 63.3511V94.6011C99.9568 95.9934 99.4037 97.3288 98.4191 98.3134C97.4346 99.2979 96.0992 99.8511 94.7068 99.8511H63.4569C62.0645 99.8511 60.7292 99.2979 59.7446 98.3134C58.76 97.3288 58.2069 95.9935 58.2069 94.6011V63.3511C58.2069 61.9588 58.76 60.6234 59.7446 59.6388C60.7292 58.6543 62.0645 58.1012 63.4569 58.1012Z" stroke="#F15822" stroke-width="2"/>
</svg>
