<svg width="84" height="101" viewBox="0 0 84 101" fill="none" xmlns="http://www.w3.org/2000/svg">
<path d="M70.6748 97.8629L70.6729 97.8648C68.0394 100.512 63.7556 100.515 61.1033 97.8629L53.6447 90.4043C53.2748 90.0344 53.2748 89.4379 53.6447 89.068L71.6036 71.1091C71.9735 70.7392 72.57 70.7392 72.9399 71.1091L80.3985 78.5677C83.0319 81.2011 83.0352 85.4866 80.3983 88.1394C80.3977 88.14 80.3972 88.1405 80.3966 88.1411L70.6748 97.8629ZM4.92159 19.0632L4.92383 19.0636L24.27 22.4392L66.5329 64.7022C66.8978 65.067 66.9093 65.6668 66.5287 66.0589C66.5276 66.0599 66.5266 66.061 66.5255 66.0621L48.574 84.0135C48.2041 84.3834 47.6077 84.3834 47.2378 84.0135L4.97451 41.7502L1.58363 22.408C1.58349 22.4072 1.58334 22.4063 1.58321 22.4055C1.24688 20.4258 2.95989 18.7163 4.92159 19.0632ZM14.7871 41.0175L15.7871 41.0175L15.7871 40.0175L15.7871 33.2514L22.5531 33.2514L23.5531 33.2514L23.5531 32.2514L23.5531 26.3784L23.5531 25.5384L22.7256 25.3934L12.2901 23.5651L11.778 23.4754L11.4104 23.843L6.37865 28.8748L6.01105 29.2424L6.10076 29.7544L7.92901 40.19L8.07397 41.0175L8.91401 41.0175L14.7871 41.0175ZM32.3044 37.385C31.024 36.1046 28.967 36.1046 27.6867 37.385C26.4063 38.6654 26.4063 40.7223 27.6867 42.0027L52.6026 66.9187C53.883 68.1991 55.94 68.1991 57.2203 66.9187C58.5007 65.6383 58.5007 63.5814 57.2203 62.301L32.3044 37.385Z" stroke="#084924" stroke-width="2"/>
<path fill-rule="evenodd" clip-rule="evenodd" d="M77.995 42.2652L78 42.2681C82.5026 44.9125 82.4961 51.4429 77.9976 54.0933L77.9954 54.0946L65.0119 61.7667L66.4721 63.2269L79.0128 55.8164C84.8188 52.3958 84.8373 43.9642 79.0128 40.5436L13.9274 2.0655C8.63923 -1.05934 0.540527 1.97305 0.540527 9.70194V86.6396C0.540527 93.5734 8.06603 97.7522 13.9274 94.276L40.4273 78.617L38.9671 77.1568L12.91 92.5542L12.9072 92.5558C8.36292 95.2508 2.54053 92.0047 2.54053 86.6396V33.657L0.597954 22.5761C0.303687 20.8525 1.16998 19.2723 2.54053 18.505V9.70194C2.54053 6.63428 4.10096 4.61758 6.14039 3.60488C8.25678 2.55397 10.8834 2.59001 12.9096 3.78714L12.91 3.78735L77.995 42.2652Z" fill="#084924"/>
</svg>
