<svg width="101" height="101" viewBox="0 0 101 101" fill="none" xmlns="http://www.w3.org/2000/svg">
<path d="M3.48052 28.243L3.48056 28.2431L22.3376 47.102L47.2079 22.2354L40.0051 15.0326L28.6663 26.3715L3.48052 28.243ZM3.48052 28.243C1.45163 26.2141 1.45267 22.9255 3.48052 20.8957C3.48062 20.8956 3.48071 20.8955 3.48081 20.8954L21.0017 3.37455C23.031 1.34524 26.3195 1.3452 28.3489 3.37445C28.3489 3.37448 28.349 3.37452 28.349 3.37455L34.2122 9.23948L22.8737 20.578L3.48052 28.243ZM54.7024 79.4648L79.5727 54.5982L86.7794 61.805L75.4399 73.1445C74.4452 74.1392 74.4469 75.7519 75.4387 76.747L75.4399 76.7481L77.6282 78.9364L54.7024 79.4648ZM54.7024 79.4648L73.567 98.3276L72.86 99.0347L73.5671 98.3276C75.5964 100.357 78.885 100.357 80.9144 98.3276L81.6215 99.0347L80.9144 98.3276L98.4356 80.8084C100.465 78.7791 100.465 75.4904 98.4355 73.4611L92.5725 67.598L81.2329 78.9375C80.238 79.9325 78.6243 79.9345 77.6293 78.9375L54.7024 79.4648ZM97.502 24.997L97.5019 24.9971L89.2209 33.2799L68.5263 12.5853L76.807 4.30636C76.8071 4.30633 76.8071 4.30629 76.8072 4.30625C80.0827 1.03254 85.3909 1.03285 88.6642 4.30617L97.5018 13.1437C100.774 16.4175 100.775 21.7238 97.502 24.997ZM5.61618 75.4894L62.6922 18.4211L83.3869 39.1141L26.3263 96.1766L5.65143 99.8017L5.65093 99.8018C3.50214 100.18 1.63161 98.3095 2.00659 96.1619L5.61618 75.4894ZM27.8395 26.9248C28.1485 26.7966 28.4292 26.6089 28.6656 26.3722H25.062C25.2984 26.6088 25.5791 26.7966 25.8881 26.9248C26.1974 27.0531 26.5289 27.1191 26.8638 27.1191C27.1986 27.1191 27.5302 27.0531 27.8395 26.9248ZM22.8725 24.1827L25.0613 26.3715L22.8725 20.5791C21.8756 21.5741 21.8776 23.1878 22.8725 24.1827Z" stroke="#F15822" stroke-width="2"/>
</svg>
