<svg width="101" height="101" viewBox="0 0 101 101" fill="none" xmlns="http://www.w3.org/2000/svg">
<path d="M97.4962 16.0363L97.4981 16.0382C100.776 19.2987 100.779 24.6018 97.4962 27.8843L88.492 36.8886C87.9645 37.4161 87.1132 37.4161 86.5857 36.8886L64.9052 15.208C64.3777 14.6806 64.3777 13.8293 64.9052 13.3018L73.9095 4.29755C77.1698 1.03716 82.4746 1.03392 85.7578 4.29782C85.7583 4.29836 85.7588 4.29889 85.7594 4.29943L97.4962 16.0363ZM2.01623 95.526L2.01662 95.5238L6.10305 72.1039L57.1705 21.0365C57.6929 20.5141 58.5474 20.5025 59.1005 21.0407C59.1016 21.0418 59.1027 21.0428 59.1037 21.0439L80.7768 42.717C81.3043 43.2445 81.3043 44.0958 80.7768 44.6233L29.709 95.691L6.29312 99.7961C6.29225 99.7962 6.29139 99.7964 6.29053 99.7965C3.76101 100.227 1.57212 98.0376 2.01623 95.526ZM28.5169 83.6522V82.6522H27.5169H19.1416V74.2768V73.2768H18.1416H11.0514H10.2114L10.0664 74.1043L7.85932 86.7024L7.76961 87.2145L8.13721 87.5821L14.2117 93.6566L14.5793 94.0242L15.0913 93.9345L27.6895 91.7273L28.5169 91.5824V90.7423V83.6522ZM24.4855 62.6513C23.0207 64.1161 23.0207 66.4681 24.4855 67.9329C25.9503 69.3977 28.3023 69.3977 29.7671 67.9329L59.8464 37.8536C61.3112 36.3888 61.3112 34.0368 59.8464 32.572C58.3816 31.1072 56.0296 31.1072 54.5648 32.572L24.4855 62.6513Z" stroke="#084924" stroke-width="2"/>
</svg>
