<svg width="97" height="97" viewBox="0 0 97 97" fill="none" xmlns="http://www.w3.org/2000/svg">
<path d="M48.26 4.99998C72.38 4.99998 92 24.62 92 48.74C92 72.86 72.38 92.48 48.26 92.48C24.14 92.48 4.52 72.85 4.52 48.74C4.52 24.63 24.14 4.99998 48.26 4.99998ZM48.26 0.479984C21.61 0.469984 0 22.08 0 48.74C0 75.4 21.61 97 48.26 97C74.91 97 96.52 75.39 96.52 48.74C96.52 22.09 74.91 0.479984 48.26 0.479984Z" fill="#302C2D"/>
<path d="M42.93 38.75C41.13 37.39 38.74 36.72 35.78 36.72C33.55 36.72 31.53 37.27 29.71 38.39C27.87 39.5 26.44 40.94 25.41 42.69C24.37 44.44 23.86 46.2 23.86 47.99H33.56V45.98H32.9C32.9 46.32 32.7 46.63 32.31 46.87C31.91 47.11 31.44 47.24 30.9 47.24C30.01 47.24 29.44 47.11 29.19 46.84C28.95 46.57 28.82 46.11 28.82 45.47C28.82 43.09 29.3 41.21 30.26 39.8C31.23 38.39 32.7 37.68 34.67 37.68C37.83 37.68 40.09 38.87 41.45 41.24C42.44 42.98 43.07 45.04 43.34 47.4V39.09C43.21 38.97 43.07 38.86 42.94 38.76L42.93 38.75Z" fill="#302C2D"/>
<path d="M72.6 71.98C71.41 71.98 70.31 71.43 69.29 70.31C68.29 69.2 66.72 67.07 64.59 63.91L54.07 47.98C56.43 45.8 58.32 44.03 59.7 42.64C60.89 41.45 61.94 40.55 62.88 39.93C63.82 39.32 64.85 39 65.99 39C66.53 39 67.23 39.12 68.07 39.37V38.27H55.47V39.37C56.35 39.13 57.07 39 57.61 39C58.26 39 58.76 39.12 59.13 39.37C59.51 39.63 59.69 39.97 59.69 40.41C59.69 41.01 59.31 41.67 58.58 42.42C57.15 43.85 55.1 45.75 52.43 48.13L47.9 52.31L47.53 52.65V46.16L47.6 23.87H46.41C46.41 24.85 46.02 25.66 45.23 26.27C44.43 26.89 43.47 27.2 42.34 27.2C41.84 27.2 41.34 27.07 40.82 26.8C40.29 26.52 40.04 26.24 40.04 25.94H39.38V27.94C40.16 28.09 40.91 28.17 41.6 28.17C42.24 28.17 42.81 28.08 43.3 27.94V47.4C43.4 48.27 43.45 49.18 43.45 50.13C43.41 50.24 43.36 50.36 43.3 50.46C42.96 51.05 42.27 51.51 41.23 51.87C39.99 52.3 38.14 52.75 35.67 53.24C35.23 53.34 34.37 53.52 33.11 53.8C31.85 54.07 30.75 54.35 29.82 54.64C28 55.24 26.31 56.33 24.78 57.93C23.25 59.55 22.49 61.48 22.49 63.76C22.49 66.92 23.42 69.34 25.31 71.06C27.18 72.76 29.51 73.61 32.28 73.61C35.05 73.61 37.26 72.78 38.94 71.1C40.62 69.42 41.79 67.61 42.47 65.69C42.87 64.51 43.16 63.57 43.31 62.85V68.43C43.31 69.67 43.19 70.58 42.94 71.21C42.7 71.82 42.12 72.13 41.24 72.13C40.84 72.13 40.22 72.01 39.39 71.76V72.87H51.24V71.76C50.4 72 49.78 72.13 49.39 72.13C48.59 72.13 48.09 71.84 47.86 71.25C47.64 70.65 47.53 69.72 47.53 68.43V53.98L47.9 53.64L50.42 51.24L55.17 58.21L62.87 69.47C63.07 69.71 63.16 70.06 63.16 70.5C63.16 70.9 62.98 71.25 62.61 71.54C62.24 71.83 61.68 71.98 60.94 71.98C60.49 71.98 59.92 71.91 59.23 71.76V72.87H73.98V71.76C73.48 71.91 73.01 71.98 72.57 71.98H72.6ZM43.32 60.2C43.32 61.44 42.9 62.97 42.06 64.79C41.23 66.63 40.09 68.21 38.66 69.54C37.23 70.87 35.67 71.54 34 71.54C31.72 71.54 29.98 70.71 28.77 69.05C27.56 67.4 26.96 65.49 26.96 63.31C26.96 61.44 27.5 59.75 28.59 58.24C29.68 56.73 31.38 55.56 33.71 54.71C35.19 54.17 37.53 53.47 40.74 52.64C41.49 52.49 42.1 52.35 42.6 52.19C43.09 52.04 43.33 51.9 43.33 51.75V60.2H43.32Z" fill="#302C2D"/>
<path d="M61.79 37.25C62.7013 37.25 63.44 36.5113 63.44 35.6C63.44 34.6887 62.7013 33.95 61.79 33.95C60.8787 33.95 60.14 34.6887 60.14 35.6C60.14 36.5113 60.8787 37.25 61.79 37.25Z" fill="#302C2D"/>
<path d="M27.77 52.3C28.6813 52.3 29.42 51.5613 29.42 50.65C29.42 49.7387 28.6813 49 27.77 49C26.8587 49 26.12 49.7387 26.12 50.65C26.12 51.5613 26.8587 52.3 27.77 52.3Z" fill="#302C2D"/>
</svg>
