<svg width="116" height="101" viewBox="0 0 116 101" fill="none" xmlns="http://www.w3.org/2000/svg">
<path d="M31.1721 16.1368H31.8658L32.1088 15.487L34.8542 8.14361C34.8542 8.14348 34.8543 8.14335 34.8543 8.14323C36.2704 4.3607 39.892 1.85107 43.9399 1.85107H71.9533C76.0014 1.85107 79.6231 4.36087 81.0391 8.14361L81.0399 8.14572L83.8078 15.4895L84.0517 16.1368H84.7435H104.386C109.749 16.1368 114.101 20.4882 114.101 25.8511V90.1368C114.101 95.4997 109.749 99.8511 104.386 99.8511H11.5292C6.16633 99.8511 1.81494 95.4997 1.81494 90.1368V25.8511C1.81494 20.4882 6.16633 16.1368 11.5292 16.1368H31.1721ZM85.7435 57.9939C85.7435 42.6649 73.2869 30.2082 57.9578 30.2082C42.6287 30.2082 30.1721 42.6649 30.1721 57.9939C30.1721 73.323 42.6287 85.7796 57.9578 85.7796C73.2869 85.7796 85.7435 73.323 85.7435 57.9939ZM76.6007 57.9939C76.6007 68.2675 68.2314 76.6368 57.9578 76.6368C47.6842 76.6368 39.3149 68.2675 39.3149 57.9939C39.3149 47.7203 47.6842 39.3511 57.9578 39.3511C68.2314 39.3511 76.6007 47.7203 76.6007 57.9939Z" stroke="#F38722" stroke-width="2"/>
</svg>
