<svg width="114" height="101" viewBox="0 0 114 101" fill="none" xmlns="http://www.w3.org/2000/svg">
<path d="M10.0909 21.7375H9.09091V22.7375V91.4774V92.4774H10.0909H78.8308H79.8308V91.4774V69.3127C79.8308 69.16 79.8872 69.0261 79.9871 68.9262L86.2362 62.6772C86.59 62.3233 87.2045 62.5784 87.2045 63.0832V91.4774C87.2045 96.1002 83.4536 99.8511 78.8308 99.8511H10.0909C5.46817 99.8511 1.71729 96.1002 1.71729 91.4774V22.7375C1.71729 18.1148 5.46817 14.3639 10.0909 14.3639H63.5011C63.9915 14.3639 64.2609 14.9668 63.9028 15.3364C63.9019 15.3374 63.901 15.3383 63.9001 15.3392L57.658 21.5813C57.5626 21.6766 57.4309 21.7375 57.252 21.7375H10.0909ZM40.8163 81.0513L40.8162 81.0513C36.3338 81.5475 32.5191 77.7664 33.0153 73.2495L34.9295 55.9455L85.9628 4.91218C90.0451 0.829848 96.6363 0.832078 100.697 4.91063L100.699 4.91218L109.135 13.3484C113.217 17.431 113.215 24.0429 109.154 28.1037L58.121 79.1371L40.8163 81.0513ZM91.2743 35.5524L91.9818 34.8453L91.2745 34.138L79.9285 22.792L79.2212 22.0847L78.5141 22.7922L42.2304 59.0955L41.9828 59.3432L41.9439 59.6913L40.5183 72.4433L40.3792 73.6873L41.6232 73.5483L54.3752 72.1227L54.7233 72.0838L54.9711 71.8362L91.2743 35.5524ZM85.154 16.1719L84.4469 16.879L85.154 17.5861L96.5 28.9321L97.2071 29.6392L97.9142 28.9321L103.948 22.8978L103.957 22.8892L103.965 22.8804C105.111 21.6773 105.123 19.7683 103.929 18.5739L95.4927 10.1376C94.3079 8.95292 92.3631 8.93865 91.1843 10.1416C91.1827 10.1432 91.1811 10.1448 91.1796 10.1464L85.154 16.1719Z" stroke="#F38722" stroke-width="2"/>
</svg>
