<svg width="126" height="101" viewBox="0 0 126 101" fill="none" xmlns="http://www.w3.org/2000/svg">
<path d="M50.9754 51.2475L50.9754 51.2474L39.5789 39.853C39.5789 39.8529 39.5789 39.8529 39.5789 39.8529C38.7488 39.0227 38.7488 37.6774 39.5789 36.8472L50.9735 25.4527C51.8036 24.6225 53.149 24.6225 53.9792 25.4527L56.1882 27.6617C57.0183 28.4919 57.0183 29.8372 56.1882 30.6674L56.1881 30.6675L49.2134 37.6441L48.5064 38.3513L49.2136 39.0583L56.1901 46.0328C56.1901 46.0328 56.1902 46.0329 56.1902 46.0329C57.0203 46.8631 57.0203 48.2083 56.1901 49.0385L53.9811 51.2475C53.1509 52.0777 51.8056 52.0777 50.9754 51.2475ZM76.7021 39.0581L77.409 38.351L76.702 37.644L69.7274 30.6694C68.8972 29.8392 68.8972 28.4938 69.7274 27.6637L71.9364 25.4547C72.7665 24.6245 74.1119 24.6245 74.9421 25.4547L86.3366 36.8492C87.1668 37.6794 87.1668 39.0247 86.3366 39.8549L74.9421 51.2494C74.1119 52.0796 72.7665 52.0796 71.9364 51.2494L69.7274 49.0405C68.8972 48.2103 68.8972 46.8649 69.7274 46.0347L69.7275 46.0346L76.7021 39.0581ZM100.458 64.3511H101.458V63.3511V13.3511V12.3511H100.458H25.4578H24.4578V13.3511V63.3511V64.3511H25.4578H100.458ZM3.58276 83.1011H49.3847C49.6174 84.5041 50.3563 85.8877 51.3961 86.9798C52.699 88.3483 54.561 89.3511 56.7078 89.3511H68.5828C70.5717 89.3511 72.3885 88.676 73.7336 87.4034C74.8779 86.3209 75.6365 84.8478 75.8899 83.1011H122.333C123.499 83.1011 124.458 84.0596 124.458 85.2261V88.3511C124.458 94.6738 119.28 99.8511 112.958 99.8511H12.9578C6.63505 99.8511 1.45776 94.6738 1.45776 88.3511V85.2261C1.45776 84.0596 2.4163 83.1011 3.58276 83.1011ZM103.583 1.85107C108.187 1.85107 111.958 5.62211 111.958 10.2261V74.8511H13.9578V10.2261C13.9578 5.62211 17.7288 1.85107 22.3328 1.85107H103.583Z" stroke="#084924" stroke-width="2"/>
</svg>
