<svg width="126" height="101" viewBox="0 0 126 101" fill="none" xmlns="http://www.w3.org/2000/svg">
<path d="M100.458 64.3511H101.458V63.3511V13.3511V12.3511H100.458H25.4578H24.4578V13.3511V63.3511V64.3511H25.4578H100.458ZM48.5127 40.6374L48.5378 40.629L48.5625 40.6193L54.5206 38.2756L61.3189 45.0739L58.9751 51.032L58.9654 51.0568L58.957 51.0821C58.8834 51.303 58.7594 51.5037 58.5948 51.6683C58.4301 51.833 58.2294 51.957 58.0086 52.0305L58.0083 52.0306L47.1161 55.6613L51.7161 51.0613C51.8116 51.075 51.912 51.084 52.0112 51.084C53.944 51.084 55.5112 49.5168 55.5112 47.584C55.5112 45.6513 53.944 44.084 52.0112 44.084C50.0785 44.084 48.5112 45.6513 48.5112 47.584C48.5112 47.6833 48.5203 47.7836 48.534 47.8791L43.9323 52.4807L47.5638 41.5862C47.5638 41.5862 47.5638 41.5862 47.5638 41.5862C47.6375 41.3653 47.7616 41.1645 47.9263 40.9998C48.091 40.8351 48.2917 40.7111 48.5127 40.6374ZM71.5947 20.4728L71.6011 20.4659L71.6073 20.4589C72.8729 19.0271 74.2867 18.532 75.5973 18.5882C76.9396 18.6459 78.2677 19.2881 79.2848 20.2998C80.3018 21.3115 80.9474 22.6326 81.0059 23.9701C81.063 25.2757 80.5667 26.6926 79.1199 27.9716L79.1129 27.9778L79.106 27.9841L64.2267 41.6416L57.9372 35.3521L71.5947 20.4728ZM3.58276 83.1011H49.3847C49.6174 84.5041 50.3563 85.8877 51.3961 86.9798C52.699 88.3483 54.561 89.3511 56.7078 89.3511H68.5828C70.5717 89.3511 72.3885 88.676 73.7336 87.4034C74.8779 86.3209 75.6365 84.8478 75.8899 83.1011H122.333C123.499 83.1011 124.458 84.0596 124.458 85.2261V88.3511C124.458 94.6738 119.28 99.8511 112.958 99.8511H12.9578C6.63505 99.8511 1.45776 94.6738 1.45776 88.3511V85.2261C1.45776 84.0596 2.4163 83.1011 3.58276 83.1011ZM103.583 1.85107C108.187 1.85107 111.958 5.62211 111.958 10.2261V74.8511H13.9578V10.2261C13.9578 5.62211 17.7288 1.85107 22.3328 1.85107H103.583Z" stroke="#F15822" stroke-width="2"/>
</svg>
